<?xml version="1.0" standalone="no"?>
<!DOCTYPE svg PUBLIC "-//W3C//DTD SVG 20010904//EN"
 "http://www.w3.org/TR/2001/REC-SVG-20010904/DTD/svg10.dtd">
<svg version="1.0" xmlns="http://www.w3.org/2000/svg"
 width="600.000000pt" height="800.000000pt" viewBox="0 0 600.000000 800.000000"
 preserveAspectRatio="xMidYMid meet">

<g transform="translate(0.000000,800.000000) scale(0.100000,-0.100000)"
fill="#000000" stroke="none">
<path d="M0 7812 c0 -183 1 -189 23 -210 15 -14 27 -18 36 -12 8 4 19 7 25 6
6 -2 8 -1 4 1 -5 3 -8 11 -8 18 0 7 -12 16 -26 19 -34 9 -28 35 16 62 37 24
38 25 101 92 22 23 44 42 49 42 5 0 36 26 68 58 32 31 73 65 90 74 62 33 40
38 -173 38 l-205 0 0 -188z"/>
<path d="M140 7605 c0 -10 10 -15 26 -15 22 0 25 2 14 15 -7 8 -19 15 -26 15
-8 0 -14 -7 -14 -15z"/>
<path d="M40 7490 c-12 -8 -13 -13 -2 -27 33 -48 37 -65 17 -79 -10 -8 -27
-12 -37 -8 -26 8 -25 -47 1 -63 21 -13 51 -92 51 -135 0 -26 2 -28 20 -18 11
6 31 8 45 4 17 -4 34 0 53 12 15 11 33 22 41 25 21 8 -15 39 -47 39 -23 1 -25
2 -9 11 21 13 13 58 -15 78 -11 7 -17 19 -14 26 3 8 -6 17 -23 23 -22 8 -30
20 -39 52 -6 23 -8 49 -5 56 6 16 -15 18 -37 4z"/>
<path d="M120 7050 c0 -5 5 -10 11 -10 5 0 7 5 4 10 -3 6 -8 10 -11 10 -2 0
-4 -4 -4 -10z"/>
<path d="M220 6881 c0 -6 5 -13 10 -16 6 -3 10 -18 10 -32 0 -28 24 -52 53
-53 33 0 28 26 -12 68 -39 40 -61 52 -61 33z"/>
<path d="M3820 6673 c-182 -30 -360 -90 -599 -205 -266 -127 -328 -145 -345
-102 -6 16 -101 20 -111 4 -3 -5 -17 -10 -30 -10 -14 0 -54 -11 -91 -25 -36
-14 -76 -25 -88 -25 -12 0 -26 -4 -31 -8 -11 -9 -97 -43 -118 -46 -6 -1 -17
-5 -23 -8 -6 -4 -32 -14 -59 -23 -37 -13 -49 -14 -55 -4 -9 14 -30 10 -129
-26 -83 -30 -244 -50 -329 -41 -76 9 -77 -4 -4 -148 75 -149 112 -264 112
-346 0 -59 1 -61 39 -88 22 -15 52 -49 66 -75 15 -27 34 -51 42 -54 11 -4 13
-15 9 -38 -5 -27 -2 -35 20 -50 31 -20 37 -16 25 16 -9 25 7 68 35 97 7 7 17
20 22 28 13 23 105 28 205 10 49 -9 95 -23 103 -31 9 -8 24 -15 34 -15 26 0
32 -14 16 -36 -13 -18 -15 -18 -55 1 -32 14 -44 16 -54 6 -19 -19 5 -46 44
-48 19 0 84 -3 144 -5 61 -2 116 -8 123 -12 16 -10 15 -26 -2 -26 -18 0 -66
-56 -66 -76 0 -8 17 -22 38 -31 20 -8 50 -24 66 -36 26 -18 29 -19 38 -4 22
40 103 4 92 -40 -3 -12 -1 -36 5 -53 12 -35 -5 -82 -48 -134 -20 -24 -6 -31
15 -9 11 11 37 25 59 31 68 20 154 -14 93 -37 -24 -9 -56 -56 -45 -67 10 -10
68 7 86 25 11 11 42 21 76 25 47 5 61 3 76 -10 11 -10 19 -23 19 -30 0 -13 37
-30 55 -25 5 1 22 3 37 3 15 1 25 5 22 9 -2 5 8 2 23 -6 15 -8 34 -15 41 -15
7 0 15 -6 18 -14 3 -9 20 -13 50 -12 24 1 44 -2 44 -6 0 -4 7 -4 17 -1 11 5
14 3 8 -6 -14 -23 36 8 96 59 30 26 77 62 103 79 27 16 65 45 85 63 20 19 70
59 111 89 70 52 230 211 230 228 0 5 -16 7 -35 4 -22 -2 -35 1 -35 8 0 6 -6 9
-13 6 -8 -3 -14 4 -15 16 -2 27 -28 47 -63 47 -20 0 -30 7 -38 28 -21 49 -48
73 -85 75 -48 3 -68 23 -35 35 13 6 33 20 44 32 19 21 26 22 100 16 44 -4 103
-13 130 -21 153 -42 217 -55 239 -49 29 7 79 81 149 220 38 77 47 105 57 189
20 167 -2 305 -66 422 -99 179 -229 268 -444 302 -63 10 -199 13 -250 4z
m-572 -931 c31 -11 76 -24 100 -31 23 -7 40 -16 37 -20 -8 -14 -68 -22 -75
-10 -4 5 -30 12 -59 13 -38 2 -58 9 -74 25 -19 19 -20 23 -7 31 19 12 11 13
78 -8z m314 -73 c19 -10 18 -12 -13 -35 -18 -13 -38 -24 -43 -24 -10 0 -36 45
-36 62 0 12 68 10 92 -3z m188 -39 c11 -7 9 -11 -13 -19 -16 -6 -32 -11 -37
-11 -10 0 -20 26 -13 34 9 9 46 7 63 -4z m-1609 -60 c31 -17 22 -31 -18 -28
-39 3 -56 23 -26 31 10 3 19 5 21 6 2 0 12 -4 23 -9z m2014 -240 c3 -5 -1 -10
-10 -10 -9 0 -13 5 -10 10 3 6 8 10 10 10 2 0 7 -4 10 -10z m-1139 -251 c8
-14 -11 -33 -25 -25 -11 7 -4 36 9 36 5 0 12 -5 16 -11z"/>
<path d="M912 5418 c-30 -59 -51 -115 -63 -167 -5 -24 -19 -55 -29 -69 -23
-29 -26 -54 -6 -46 35 14 139 -79 165 -146 29 -77 44 -110 53 -110 12 0 10 16
-7 57 -20 48 -19 63 5 63 23 0 90 -81 109 -131 25 -68 41 -99 50 -99 9 0 21
34 21 62 0 28 80 145 138 204 68 68 67 89 -3 122 -94 45 -210 130 -294 216
-46 47 -91 86 -100 86 -9 0 -26 -19 -39 -42z"/>
<path d="M2580 5110 c0 -5 5 -10 11 -10 5 0 7 5 4 10 -3 6 -8 10 -11 10 -2 0
-4 -4 -4 -10z"/>
<path d="M4140 5081 c0 -6 4 -13 10 -16 6 -3 7 1 4 9 -7 18 -14 21 -14 7z"/>
<path d="M4236 5055 c4 -8 11 -15 16 -15 6 0 5 6 -2 15 -7 8 -14 15 -16 15 -2
0 -1 -7 2 -15z"/>
<path d="M4210 5037 c0 -14 5 -29 10 -32 7 -4 9 3 6 20 -7 37 -16 44 -16 12z"/>
<path d="M4191 5024 c0 -12 5 -27 12 -33 8 -6 19 -29 26 -50 13 -44 31 -63 28
-32 0 11 -5 17 -10 14 -4 -3 -8 1 -6 8 3 26 -1 38 -20 56 -10 10 -21 27 -24
38 -4 19 -5 19 -6 -1z"/>
<path d="M4247 4995 c3 -22 13 -49 23 -60 13 -14 16 -26 9 -42 -8 -23 4 -42
16 -23 3 5 4 10 0 10 -3 0 -1 9 5 20 8 15 6 23 -11 39 -12 11 -19 25 -16 33 4
9 6 7 6 -4 1 -10 6 -18 12 -18 5 0 8 4 4 9 -3 5 -1 12 5 16 9 6 14 -14 11 -42
-1 -7 3 -13 9 -13 5 0 10 -10 10 -22 0 -19 -2 -20 -11 -8 -9 12 -10 11 -6 -8
3 -12 1 -20 -4 -16 -18 11 -8 -12 16 -38 27 -30 34 -48 10 -28 -12 10 -15 10
-15 -3 0 -9 4 -18 9 -22 5 -3 12 -19 16 -35 4 -17 11 -30 16 -30 5 0 9 -6 9
-14 0 -8 21 -38 46 -68 50 -58 84 -117 84 -146 0 -10 14 -58 30 -105 17 -48
30 -99 30 -114 0 -14 2 -24 5 -21 7 6 -11 279 -20 303 -5 16 -5 17 4 5 6 -9
11 -10 11 -3 0 6 -7 18 -15 27 -9 8 -15 19 -14 23 4 24 -2 43 -12 37 -7 -4 -7
1 1 16 6 12 9 29 5 38 -4 9 -9 28 -11 42 -3 14 -9 27 -15 28 -5 2 -9 11 -9 19
0 15 -47 81 -82 116 -17 17 -18 17 -19 0 0 -15 -2 -14 -9 3 -12 31 -28 38 -23
10 3 -13 0 -27 -6 -31 -6 -3 -10 -3 -9 2 1 4 -4 31 -11 60 -11 46 -17 53 -46
63 -19 6 -36 16 -39 23 -3 7 -3 -6 1 -28z"/>
<path d="M4170 5001 c0 -6 4 -13 10 -16 6 -3 7 1 4 9 -7 18 -14 21 -14 7z"/>
<path d="M2807 4897 c-2 -6 2 -18 9 -25 12 -11 14 -9 14 7 0 23 -16 36 -23 18z"/>
<path d="M4220 4896 c0 -2 8 -10 18 -17 15 -13 16 -12 3 4 -13 16 -21 21 -21
13z"/>
<path d="M3090 4863 c0 -17 106 -123 122 -123 5 0 8 8 8 19 0 10 7 24 15 31
25 21 17 39 -22 46 -21 4 -51 15 -68 26 -38 23 -55 23 -55 1z"/>
<path d="M2903 4843 c-12 -2 -27 -11 -34 -19 -10 -12 -8 -17 7 -29 24 -18 54
-19 54 -2 0 6 3 22 6 35 4 12 2 21 -2 21 -5 -1 -19 -4 -31 -6z"/>
<path d="M4285 4840 c-8 -13 0 -23 20 -26 19 -3 19 10 1 25 -10 9 -16 9 -21 1z"/>
<path d="M3305 4760 c3 -5 10 -10 16 -10 5 0 9 5 9 10 0 6 -7 10 -16 10 -8 0
-12 -4 -9 -10z"/>
<path d="M1194 4730 c4 -18 12 -37 18 -41 21 -13 20 -3 -2 37 l-22 39 6 -35z"/>
<path d="M1086 4718 c-10 -40 -7 -58 9 -52 9 4 15 19 15 40 0 38 -15 45 -24
12z"/>
<path d="M3265 4731 c-6 -11 33 -36 42 -27 7 7 -16 36 -28 36 -4 0 -10 -4 -14
-9z"/>
<path d="M3384 4689 c-4 -7 -20 -8 -42 -4 -31 6 -34 5 -24 -8 7 -8 9 -23 5
-33 -6 -16 -3 -16 24 4 31 22 60 52 50 52 -3 0 -9 -5 -13 -11z"/>
<path d="M3076 4651 c-3 -4 6 -13 19 -19 15 -7 25 -8 25 -2 0 13 -38 32 -44
21z"/>
<path d="M4530 4650 c0 -5 5 -10 11 -10 5 0 7 5 4 10 -3 6 -8 10 -11 10 -2 0
-4 -4 -4 -10z"/>
<path d="M1041 4584 c-29 -61 -29 -91 -5 -215 14 -67 28 -127 32 -133 3 -6 7
-18 7 -26 0 -17 35 -27 35 -11 0 6 7 11 15 11 21 0 19 13 -16 153 -18 67 -37
151 -43 186 -12 63 -12 63 -25 35z"/>
<path d="M3918 4573 c7 -3 16 -2 19 1 4 3 -2 6 -13 5 -11 0 -14 -3 -6 -6z"/>
<path d="M4963 4517 c-23 -34 -57 -79 -75 -99 -19 -20 -43 -56 -53 -80 -11
-24 -22 -45 -25 -48 -3 -3 -21 -31 -39 -64 -23 -42 -29 -62 -22 -69 15 -15 14
-50 -1 -65 -9 -9 -8 -16 6 -30 17 -16 18 -16 11 8 -7 21 -6 22 6 10 8 -8 15
-33 17 -54 1 -22 9 -53 17 -70 12 -24 13 -31 3 -39 -10 -7 -10 -10 0 -14 27
-11 5 -76 -38 -110 -8 -7 -26 -12 -40 -10 -20 2 -31 -9 -61 -53 -20 -30 -35
-60 -32 -66 5 -15 -30 -52 -45 -46 -7 2 -12 0 -11 -5 5 -17 -25 -64 -38 -59
-7 3 -19 -7 -28 -24 -21 -40 -19 -48 5 -22 21 22 36 30 25 13 -3 -5 3 -12 12
-14 14 -4 13 -5 -4 -6 -13 0 -23 -5 -23 -11 0 -8 51 -14 107 -13 6 0 9 -6 6
-14 -4 -9 -15 -13 -29 -10 -18 3 -26 -3 -41 -35 -10 -21 -27 -41 -39 -44 -11
-3 -25 -19 -32 -36 -6 -18 -15 -27 -22 -23 -6 4 -29 -7 -50 -24 -21 -17 -41
-27 -44 -22 -10 15 -56 0 -56 -19 0 -9 -15 -25 -34 -35 -31 -17 -33 -20 -18
-32 9 -7 34 -13 55 -13 25 0 37 -5 37 -14 0 -8 -6 -16 -12 -19 -10 -4 -10 -7
0 -18 39 -42 -15 -66 -148 -64 -58 1 -99 0 -92 -3 8 -2 -5 -13 -29 -24 -41
-18 -44 -18 -56 -2 -7 10 -13 23 -13 30 0 7 -6 15 -12 17 -9 4 -8 6 3 6 10 1
15 12 16 37 1 21 9 45 22 58 12 12 19 25 16 27 -2 3 -5 28 -6 56 -2 42 -5 50
-19 46 -32 -8 -135 -108 -138 -132 -1 -14 -11 -30 -22 -38 -10 -7 -35 -29 -55
-47 l-35 -34 27 -7 c29 -7 55 15 74 66 6 14 21 31 35 38 32 14 32 14 43 -8 8
-13 7 -32 -3 -64 -8 -27 -10 -49 -5 -54 6 -6 -1 -15 -16 -23 -27 -15 -35 -36
-9 -26 8 3 22 -1 31 -10 9 -8 21 -13 27 -11 7 3 13 -4 13 -14 1 -11 -2 -17 -8
-14 -12 8 -11 -5 4 -32 7 -13 11 -40 9 -62 -4 -37 -6 -40 -41 -46 -49 -8 -209
10 -197 23 3 3 -2 10 -11 17 -11 8 -14 18 -8 31 4 10 9 33 11 49 2 17 9 43 14
59 5 15 7 32 4 37 -3 5 9 12 27 16 32 6 32 6 8 16 -23 10 -41 12 -105 15 -28
2 -30 4 -26 33 4 29 3 30 -16 20 -13 -7 -19 -17 -16 -26 4 -9 0 -22 -7 -31
-11 -13 -9 -14 14 -9 29 8 35 -6 17 -35 -7 -11 -4 -18 10 -25 18 -9 18 -13 6
-37 -13 -24 -12 -28 5 -44 27 -24 24 -47 -11 -77 -16 -15 -30 -32 -30 -37 0
-6 -7 -10 -15 -10 -8 0 -15 -4 -15 -10 0 -5 -5 -10 -10 -10 -6 0 -21 -7 -34
-15 -21 -14 -23 -19 -13 -46 8 -19 8 -32 2 -37 -17 -12 -12 -67 6 -67 9 0 23
-6 32 -13 17 -15 30 -2 21 21 -9 25 84 113 136 128 25 7 51 19 58 28 9 11 27
15 63 14 42 -2 55 -8 79 -33 26 -28 59 -43 45 -20 -3 6 -2 10 4 10 5 0 11 -5
13 -10 2 -7 13 -6 30 2 26 12 27 15 21 73 -4 43 -1 71 11 99 21 51 20 64 -3
38 -21 -25 -31 -28 -31 -9 0 7 -9 23 -19 34 -18 19 -18 21 -3 26 9 3 26 8 36
13 16 6 18 4 13 -9 -6 -17 7 -24 16 -9 5 6 28 7 100 4 19 -2 26 -6 22 -14 -4
-7 -1 -6 7 3 28 34 55 41 94 24 20 -8 43 -23 50 -33 11 -14 13 -14 14 -2 0 12
4 11 15 -4 11 -14 21 -17 42 -11 l28 7 -22 -24 c-32 -34 -29 -42 7 -21 17 9
30 23 30 31 0 9 7 11 22 6 20 -6 21 -5 9 10 -10 11 -10 16 -2 16 7 0 11 10 9
23 -2 12 -7 22 -13 22 -22 0 -36 17 -26 29 8 9 3 22 -19 46 -17 19 -30 45 -30
59 0 32 71 111 126 139 21 11 57 39 78 62 45 46 90 69 134 67 22 -2 39 -14 66
-47 20 -25 48 -57 61 -73 14 -15 25 -36 25 -47 0 -12 7 -23 15 -26 11 -5 13
-10 5 -19 -14 -16 -3 -43 20 -50 10 -3 21 -13 24 -21 8 -22 26 -7 26 22 0 13
5 24 11 24 6 0 8 7 5 16 -3 8 -2 12 4 9 6 -3 10 1 10 9 0 9 8 16 18 17 9 0 -3
6 -28 12 -32 9 -46 18 -49 32 -2 11 -17 39 -33 62 -17 23 -28 47 -25 55 2 7
-2 26 -10 41 -18 36 -11 57 19 57 25 0 106 28 126 43 7 5 10 18 7 28 -4 11 -2
19 3 19 5 0 12 9 15 19 3 14 -2 21 -17 25 -16 5 -18 8 -7 15 7 5 10 14 6 21
-4 6 1 17 11 25 18 13 17 14 -13 15 -36 0 -42 10 -18 30 10 8 12 17 6 24 -11
14 -2 76 11 76 6 0 8 7 5 15 -4 8 -2 17 4 20 11 7 51 87 45 92 -2 2 -22 -6
-45 -19 -31 -16 -44 -30 -51 -57 -5 -20 -10 -39 -10 -43 0 -4 -20 -38 -44 -76
-31 -47 -56 -74 -83 -87 -21 -11 -50 -28 -65 -38 -16 -10 -28 -15 -28 -12 0 4
-6 0 -14 -8 -8 -8 -16 -29 -18 -47 -3 -29 -8 -35 -38 -43 -19 -5 -41 -14 -48
-19 -7 -6 -15 -8 -19 -4 -3 3 -2 6 3 6 6 0 16 17 23 38 30 88 70 137 94 113
16 -16 27 -14 27 5 0 18 31 77 43 82 4 2 7 9 7 17 0 7 7 19 16 26 37 31 32 82
-7 72 -15 -4 -17 4 -12 79 2 45 11 100 19 122 15 38 11 76 -7 76 -5 0 -7 11
-3 25 4 18 1 27 -10 31 -22 8 -10 24 19 24 14 0 29 9 35 20 6 11 7 20 3 20 -4
0 -13 11 -19 24 -9 20 -9 26 2 30 8 3 11 12 8 19 -3 8 2 17 11 21 9 3 13 10
10 16 -7 11 20 54 35 56 6 1 15 2 20 3 6 0 9 6 8 11 -2 6 8 16 21 23 32 16 39
37 12 37 -12 0 -21 5 -21 10 0 6 5 10 10 10 12 0 13 40 2 57 -5 9 -22 -8 -49
-50z m-129 -378 c-2 -4 -13 -9 -25 -12 -15 -4 -19 -2 -15 9 3 9 -1 14 -12 15
-11 0 -6 6 13 14 26 12 31 11 36 -3 4 -10 5 -20 3 -23z m13 -305 c-3 -3 -12
-4 -19 -1 -8 3 -5 6 6 6 11 1 17 -2 13 -5z m78 -195 c4 -6 5 -12 3 -14 -7 -7
-48 7 -48 16 0 13 37 11 45 -2z m9 -65 c24 -9 19 -33 -9 -46 -20 -9 -31 -8
-50 2 -32 17 -31 24 3 37 35 14 37 14 56 7z"/>
<path d="M5060 4539 c0 -5 5 -7 10 -4 6 3 10 8 10 11 0 2 -4 4 -10 4 -5 0 -10
-5 -10 -11z"/>
<path d="M5115 4440 c-9 -15 -1 -23 21 -18 15 3 16 4 1 16 -11 9 -17 10 -22 2z"/>
<path d="M5880 4395 c-9 -10 -14 -50 -15 -108 -2 -101 -13 -174 -26 -183 -5
-3 -7 -9 -4 -14 10 -17 -45 -43 -87 -42 -33 2 -38 -1 -29 -12 9 -11 7 -12 -11
-9 -20 4 -23 11 -23 49 1 24 6 49 13 56 7 7 12 15 12 19 0 11 -69 32 -84 26
-8 -3 -21 0 -30 6 -13 10 -14 20 -5 55 5 24 7 48 3 53 -3 5 0 8 7 7 6 -2 14 3
16 10 3 6 0 12 -6 12 -12 0 -2 32 13 42 6 4 7 10 3 15 -5 4 -11 3 -15 -2 -4
-6 -16 -15 -27 -21 -11 -6 -28 -28 -39 -50 -10 -21 -26 -50 -34 -64 -9 -14
-17 -43 -18 -64 -1 -24 -9 -43 -18 -48 -9 -5 -16 -20 -16 -33 0 -14 -4 -25
-10 -25 -5 0 -10 -4 -10 -8 0 -5 27 5 59 21 33 16 64 26 70 22 14 -8 3 -57
-16 -68 -20 -12 -15 -26 8 -20 11 3 23 13 27 22 7 19 32 40 49 41 9 0 9 -8 -2
-32 -7 -18 -19 -33 -26 -33 -7 0 -14 -6 -16 -12 -3 -8 5 -13 20 -13 13 0 30
-7 37 -15 7 -8 18 -15 24 -14 26 3 36 -2 36 -20 0 -18 27 -37 38 -26 3 3 1 5
-5 5 -6 0 -13 6 -16 14 -4 9 0 13 11 11 9 -2 21 -4 25 -4 5 -1 6 -5 2 -10 -9
-16 15 -24 31 -10 9 8 18 9 22 3 9 -11 132 -13 132 -2 0 4 11 18 25 30 34 29
33 65 -2 79 -15 6 -35 8 -45 6 -22 -6 -22 -8 -3 37 8 20 21 35 27 33 6 -1 13
11 14 28 2 16 9 34 16 40 7 5 14 18 16 28 3 16 -1 18 -30 12 -18 -4 -38 -15
-45 -24 -10 -13 -13 -4 -14 54 -5 169 -7 177 -29 150z"/>
<path d="M5196 4331 c-10 -16 23 -26 37 -11 9 10 9 11 -2 5 -7 -4 -16 -2 -21
5 -5 9 -9 9 -14 1z"/>
<path d="M4540 4185 c-9 -31 -10 -49 -3 -56 7 -7 13 7 17 42 4 28 5 53 3 55
-2 3 -10 -16 -17 -41z"/>
<path d="M5190 4203 c0 -18 -5 -33 -11 -33 -5 0 -7 -4 -4 -10 3 -5 11 -10 16
-10 6 0 7 5 4 10 -3 6 -1 10 4 10 14 0 14 30 1 50 -7 11 -10 7 -10 -17z"/>
<path d="M480 4208 c0 -27 39 -138 58 -166 35 -51 36 -55 12 -40 -19 12 -23
10 -41 -11 -24 -29 -24 -42 0 -72 33 -42 31 -103 -4 -141 -31 -33 -31 -45 -2
-68 18 -15 20 -21 10 -31 -7 -7 -13 -27 -13 -45 0 -31 -21 -51 -40 -39 -13 8
-23 -14 -12 -28 5 -7 10 -30 10 -51 2 -43 6 -51 30 -51 11 0 16 -7 15 -20 -9
-69 -17 -111 -23 -115 -4 -3 -11 -18 -17 -35 -6 -18 -18 -32 -34 -36 -14 -3
-23 -12 -21 -20 2 -8 5 -30 7 -49 1 -19 10 -52 19 -72 9 -21 16 -47 16 -58 0
-11 9 -29 21 -41 16 -16 18 -23 8 -35 -6 -8 -9 -17 -5 -21 3 -3 -6 -26 -20
-50 -28 -49 -26 -78 6 -68 24 8 60 -10 60 -30 0 -8 9 -30 20 -50 11 -20 20
-51 20 -70 0 -38 3 -39 76 -36 23 2 58 -5 79 -13 54 -23 76 -14 65 25 -5 17
-14 37 -20 44 -8 10 -8 15 0 20 6 4 9 13 6 20 -8 21 66 6 85 -17 10 -13 29
-20 52 -21 26 -1 37 -6 41 -20 4 -18 6 -18 21 -3 9 9 21 13 26 10 6 -3 2 -12
-8 -21 -16 -13 -14 -14 22 -8 22 4 42 11 45 16 4 5 20 10 37 12 18 2 38 8 45
14 40 32 135 34 157 3 15 -22 43 -27 40 -7 -3 27 2 37 30 52 19 9 32 11 36 5
11 -18 24 -10 27 17 4 33 31 42 54 18 10 -9 25 -14 35 -12 10 3 23 -1 30 -9 6
-7 27 -17 47 -20 20 -4 43 -15 52 -26 8 -10 24 -20 35 -22 60 -12 103 -45 89
-67 -4 -8 -3 -9 5 -5 18 12 47 -2 48 -25 1 -12 -7 -23 -20 -29 -17 -7 -18 -9
-5 -9 10 -1 22 -10 28 -21 6 -11 15 -18 20 -15 5 3 25 -4 45 -16 27 -16 33
-25 25 -33 -8 -8 -14 -6 -21 7 -14 23 -39 22 -39 -3 0 -11 5 -20 11 -20 7 0 8
-11 4 -31 -5 -22 -4 -29 4 -25 7 4 11 -1 11 -13 0 -12 5 -21 10 -21 6 0 10 9
10 20 0 11 12 39 27 63 20 31 28 59 31 104 4 56 7 62 31 72 50 19 71 22 71 12
0 -6 -6 -11 -12 -12 -7 0 -3 -4 10 -9 12 -5 22 -16 22 -24 0 -15 47 -28 56
-15 8 14 -5 29 -26 29 -10 0 -21 4 -24 9 -4 5 3 7 14 4 14 -4 20 0 20 11 0 9
4 16 9 16 5 0 12 10 16 23 4 12 8 25 10 30 1 4 3 12 4 18 1 8 6 7 16 -1 9 -7
14 -19 11 -27 -3 -8 2 -13 12 -13 17 0 86 -56 88 -72 1 -4 2 -11 3 -15 1 -5 6
-1 11 7 9 13 11 13 20 0 5 -8 8 -20 5 -27 -5 -16 12 -26 27 -17 7 5 33 10 58
12 25 2 47 6 49 8 2 2 -8 15 -22 28 -15 14 -27 30 -27 36 0 5 -13 10 -28 10
-37 0 -44 8 -31 33 8 14 8 18 0 13 -6 -4 -28 -4 -48 0 -31 6 -34 8 -18 15 19
7 19 8 -2 8 -12 1 -30 4 -40 8 -16 6 -15 8 7 13 24 6 23 7 -17 28 -45 24 -73
28 -73 12 0 -5 14 -10 31 -10 41 0 33 -25 -9 -26 -17 -1 -29 3 -26 8 10 16
-26 58 -50 58 -13 0 -29 7 -36 15 -15 18 -57 20 -63 3 -2 -7 -3 -5 -2 5 2 9
-1 17 -6 17 -4 0 -6 6 -3 14 5 13 -50 76 -67 76 -5 0 -9 4 -9 8 0 5 -24 16
-54 25 -30 10 -59 24 -66 32 -7 8 -19 15 -26 15 -8 0 -14 4 -14 9 0 5 -20 17
-44 27 -26 11 -47 27 -50 38 -6 22 4 38 11 19 3 -7 11 -13 19 -13 10 0 14 15
14 60 0 55 2 62 25 72 14 6 25 15 25 20 0 4 9 8 20 8 11 0 20 5 20 10 0 6 9
10 20 10 12 0 32 8 47 17 24 16 26 16 38 0 17 -23 28 -21 20 3 -4 11 -2 20 4
20 6 0 11 7 11 15 0 8 6 15 13 15 7 0 21 11 31 25 10 13 23 22 28 19 15 -10
68 7 68 22 0 8 13 17 30 21 20 4 30 11 30 24 0 27 18 33 23 7 4 -23 4 -23 6
-1 0 12 -9 29 -21 37 -18 13 -19 16 -5 16 38 0 14 20 -25 22 l-43 1 39 4 c42
5 71 26 63 46 -4 9 -6 9 -6 -1 -1 -7 -6 -10 -13 -6 -6 4 -8 3 -5 -3 8 -12 -75
-22 -123 -15 -23 3 -28 7 -19 13 8 5 9 9 3 9 -6 0 -17 -7 -24 -15 -11 -13 -15
-13 -22 -3 -8 11 -10 11 -15 0 -7 -18 -33 4 -33 28 0 13 -5 17 -21 13 -11 -3
-23 -12 -26 -19 -7 -19 -33 -18 -33 1 0 11 -11 15 -37 15 -29 1 -42 7 -56 25
-15 22 -16 25 -2 25 8 0 15 4 15 9 0 16 41 20 47 5 3 -8 18 -14 37 -14 29 1
30 1 12 15 -26 20 -12 31 19 17 14 -7 30 -12 35 -12 17 0 11 28 -7 39 -28 15
-11 21 63 24 38 1 61 3 52 5 -19 4 -34 42 -25 64 3 7 6 1 6 -14 1 -18 6 -28
16 -28 8 0 15 5 15 11 0 7 10 9 25 7 18 -4 26 0 30 13 4 11 13 19 20 19 8 0
17 5 20 10 4 6 -5 10 -19 10 -16 0 -26 -6 -26 -15 0 -8 -4 -15 -10 -15 -5 0
-9 5 -7 11 1 5 -20 19 -48 30 -55 21 -68 24 -45 9 12 -7 11 -10 -5 -16 -11 -5
-20 -3 -23 4 -2 7 -8 12 -14 12 -6 0 -7 -7 -4 -16 6 -15 4 -15 -10 -3 -10 8
-27 14 -38 15 -12 0 -42 4 -68 9 -38 6 -48 4 -48 -6 -1 -10 -4 -9 -14 3 -7 10
-16 15 -20 11 -11 -12 -96 -12 -89 0 4 7 -1 8 -13 3 -10 -4 -34 -10 -53 -13
-26 -5 -32 -3 -26 7 6 10 -5 11 -53 5 -40 -4 -62 -3 -67 5 -5 7 2 9 22 4 15
-4 25 -3 21 1 -9 10 -189 13 -239 5 -19 -4 -44 -3 -55 0 -13 5 -8 8 19 8 21 0
41 2 43 5 3 3 -18 5 -48 5 -29 1 -54 6 -56 12 -2 5 -9 7 -15 3 -7 -4 -8 0 -4
11 5 14 3 16 -12 11 -11 -3 -25 1 -34 10 -20 20 -31 19 -23 -2 6 -16 6 -16
-12 0 -10 9 -25 18 -33 18 -8 1 0 5 16 10 22 6 18 7 -19 3 -33 -4 -46 -2 -41
5 3 7 -2 11 -14 11 -12 0 -20 6 -19 13 2 7 -6 11 -19 9 -18 -3 -21 0 -16 14 4
12 3 15 -5 10 -6 -4 -22 0 -36 9 -26 18 -71 12 -80 -10 -6 -17 -79 -29 -102
-17 -11 5 -36 18 -57 28 -36 18 -97 80 -97 100 0 5 -7 18 -15 28 -12 16 -15
17 -15 4z m170 -304 c0 -14 -3 -14 -15 -4 -8 7 -15 14 -15 16 0 2 7 4 15 4 8
0 15 -7 15 -16z m747 -10 c-3 -3 -12 -4 -19 -1 -8 3 -5 6 6 6 11 1 17 -2 13
-5z m587 -49 c-28 -22 -40 -18 -13 4 13 11 26 17 28 15 3 -2 -4 -11 -15 -19z
m76 -405 c0 -5 -8 -10 -17 -10 -15 0 -16 2 -3 10 19 12 20 12 20 0z m-354
-655 c8 -8 21 -12 29 -9 8 3 22 -1 31 -11 20 -19 11 -33 -11 -15 -8 7 -23 10
-34 7 -21 -5 -29 -1 -50 26 -12 15 -11 17 3 17 10 0 24 -7 32 -15z"/>
<path d="M2735 4200 c-9 -15 43 -100 58 -95 18 7 73 -30 80 -54 3 -12 1 -19
-5 -15 -5 3 -17 -1 -26 -9 -9 -8 -48 -29 -87 -48 -65 -31 -77 -33 -170 -32
-143 1 -80 -13 116 -26 88 -7 179 -16 202 -21 23 -6 79 -19 124 -30 45 -11 96
-20 113 -20 16 0 30 -5 30 -11 0 -7 10 -9 28 -4 47 12 208 5 307 -13 39 -7 40
-8 37 -47 -1 -22 -3 -78 -5 -125 -1 -47 -6 -91 -10 -97 -5 -7 -5 -17 -2 -23 3
-5 1 -10 -4 -10 -6 0 -11 -6 -11 -12 0 -7 -14 -57 -31 -110 -34 -110 -20 -97
-206 -173 -53 -22 -90 -42 -86 -48 3 -5 -3 -17 -13 -25 -16 -13 -17 -14 -1 -9
22 8 70 -10 62 -22 -6 -10 27 -33 42 -29 7 1 44 -12 83 -31 8 -4 19 -22 25
-39 5 -18 17 -34 27 -38 23 -7 74 31 89 67 6 16 15 29 19 29 8 0 64 108 65
123 0 4 6 12 14 16 8 5 11 16 8 26 -4 9 -3 14 3 10 6 -3 10 1 10 9 0 19 27
104 40 128 6 10 10 29 10 42 0 13 6 26 14 29 7 3 18 23 23 44 5 21 15 37 22
35 6 -1 14 11 17 28 4 16 10 27 14 25 5 -3 23 14 41 37 37 49 56 70 45 51 -4
-7 -4 -13 -1 -13 3 0 12 15 20 33 8 17 14 26 15 18 0 -11 4 -9 15 5 20 26 19
31 -7 29 -13 -1 -43 5 -68 13 -37 13 -41 17 -25 23 14 6 9 7 -15 4 -19 -3 -55
1 -80 9 -38 12 -41 15 -17 15 16 1 37 -4 49 -10 11 -6 22 -8 25 -6 8 9 -30 24
-75 30 -24 3 -40 1 -36 -4 3 -5 0 -9 -5 -9 -6 0 -11 6 -11 14 0 8 -15 19 -32
25 -25 9 -30 14 -19 20 8 5 20 7 27 4 7 -3 19 -1 26 3 15 10 -44 22 -104 23
-21 1 -38 5 -38 10 0 5 -17 12 -37 16 -21 4 -42 10 -48 14 -5 4 -37 7 -70 7
-44 -1 -64 3 -77 17 -10 9 -27 17 -38 17 -11 0 -20 5 -20 11 0 6 -9 8 -22 3
-13 -3 -20 -3 -16 1 8 9 -36 35 -57 35 -8 0 -22 11 -33 25 -11 13 -22 22 -24
19 -5 -5 -23 2 -95 32 -17 8 -41 14 -52 14 -33 0 -91 27 -119 55 -27 27 -37
30 -47 15z m612 -306 c-3 -3 -12 -4 -19 -1 -8 3 -5 6 6 6 11 1 17 -2 13 -5z
m58 -4 c-19 -8 -19 -9 -1 -9 11 -1 17 -3 14 -6 -3 -4 -18 -3 -34 1 -25 6 -26
8 -9 15 28 11 55 10 30 -1z m-185 -720 c0 -5 -4 -10 -10 -10 -5 0 -10 5 -10
10 0 6 5 10 10 10 6 0 10 -4 10 -10z"/>
<path d="M4612 4072 c-23 -22 -42 -44 -42 -50 0 -19 6 -15 50 38 23 28 40 50
38 50 -3 0 -23 -17 -46 -38z"/>
<path d="M5170 4054 c0 -8 5 -12 10 -9 6 4 8 11 5 16 -9 14 -15 11 -15 -7z"/>
<path d="M5276 4035 c-10 -8 -24 -16 -29 -18 -6 -2 -12 -18 -13 -35 -1 -18
-14 -52 -28 -76 -14 -24 -22 -46 -19 -50 10 -10 35 -7 28 4 -4 6 5 24 19 41
14 17 26 35 26 39 0 18 44 50 54 40 6 -6 16 -4 28 7 19 17 25 39 8 28 -17 -11
-49 5 -43 21 7 18 -6 18 -31 -1z"/>
<path d="M5200 4029 c0 -6 -7 -8 -16 -5 -11 4 -15 2 -11 -8 4 -9 -2 -17 -14
-21 -20 -7 -27 -25 -9 -25 6 0 10 5 10 10 0 6 8 10 18 10 21 0 56 33 45 43
-10 11 -23 8 -23 -4z"/>
<path d="M5540 3990 c0 -6 -8 -10 -17 -8 -10 2 -19 -4 -21 -14 -2 -10 2 -18
10 -18 15 1 54 50 38 50 -5 0 -10 -5 -10 -10z"/>
<path d="M5410 3959 c0 -5 5 -7 10 -4 6 3 10 8 10 11 0 2 -4 4 -10 4 -5 0 -10
-5 -10 -11z"/>
<path d="M1265 3930 c27 -12 43 -12 25 0 -8 5 -22 9 -30 9 -10 0 -8 -3 5 -9z"/>
<path d="M5356 3924 c-4 -10 -1 -14 6 -12 15 5 23 28 10 28 -5 0 -13 -7 -16
-16z"/>
<path d="M5880 3900 c0 -13 11 -13 30 0 12 8 11 10 -7 10 -13 0 -23 -4 -23
-10z"/>
<path d="M5313 3872 c-16 -35 -12 -53 15 -80 12 -12 22 -26 22 -32 0 -5 15
-10 34 -10 30 0 35 4 41 30 4 17 2 36 -4 43 -7 9 -5 16 10 25 28 18 24 34 -6
20 -20 -9 -28 -8 -42 4 -34 30 -57 30 -70 0z m77 -72 c0 -5 -4 -10 -10 -10 -5
0 -10 5 -10 10 0 6 5 10 10 10 6 0 10 -4 10 -10z"/>
<path d="M5561 3881 c-14 -9 -9 -41 8 -41 13 0 23 32 14 41 -5 5 -14 4 -22 0z"/>
<path d="M5670 3879 c0 -5 5 -7 10 -4 6 3 10 8 10 11 0 2 -4 4 -10 4 -5 0 -10
-5 -10 -11z"/>
<path d="M2157 3849 c7 -7 15 -10 18 -7 3 3 -2 9 -12 12 -14 6 -15 5 -6 -5z"/>
<path d="M4471 3844 c0 -11 3 -14 6 -6 3 7 2 16 -1 19 -3 4 -6 -2 -5 -13z"/>
<path d="M2120 3830 c0 -5 5 -10 10 -10 6 0 10 5 10 10 0 6 -4 10 -10 10 -5 0
-10 -4 -10 -10z"/>
<path d="M4260 3832 c0 -5 11 -18 25 -30 14 -12 25 -31 25 -42 0 -21 33 -29
45 -10 3 6 3 10 -2 10 -11 0 -44 60 -39 69 3 4 -9 8 -25 9 -16 1 -29 -1 -29
-6z"/>
<path d="M5535 3821 c-3 -8 0 -20 8 -26 7 -5 12 -16 10 -22 -3 -7 -1 -13 4
-13 4 0 13 15 19 34 10 32 9 35 -12 39 -15 2 -25 -2 -29 -12z"/>
<path d="M5193 3823 c-7 -2 -13 -11 -13 -19 0 -8 -10 -14 -22 -15 -22 -1 -22
-1 2 -8 19 -6 24 -13 22 -30 -2 -18 2 -22 14 -17 8 3 19 6 24 6 16 0 20 34 5
56 -11 17 -12 24 -2 27 8 4 7 5 -3 5 -8 0 -21 -2 -27 -5z"/>
<path d="M5840 3800 c0 -5 5 -10 10 -10 6 0 10 5 10 10 0 6 -4 10 -10 10 -5 0
-10 -4 -10 -10z"/>
<path d="M5608 3793 c7 -3 16 -2 19 1 4 3 -2 6 -13 5 -11 0 -14 -3 -6 -6z"/>
<path d="M3882 3655 c-23 -48 -42 -89 -42 -92 0 -3 -22 -51 -50 -109 -29 -61
-47 -111 -44 -121 5 -14 4 -15 -4 -4 -8 11 -12 10 -22 -8 -9 -17 -9 -26 1 -37
12 -15 30 -19 28 -6 -3 20 2 32 12 26 7 -4 10 4 9 22 -1 16 -1 40 0 54 2 21 4
19 15 -15 l13 -40 1 37 c1 20 6 40 12 43 6 4 14 17 19 29 l9 21 0 -22 c1 -12
-3 -25 -9 -28 -5 -3 -10 -16 -9 -28 0 -15 2 -17 6 -7 3 8 9 17 14 20 4 3 12
21 17 40 6 22 11 27 11 15 1 -11 8 -29 16 -39 15 -20 15 -20 16 0 0 18 1 18 9
-1 6 -13 7 -1 5 35 -2 30 -2 44 1 30 3 -14 19 -39 36 -57 21 -21 28 -37 24
-49 -5 -14 -4 -15 9 -4 12 10 15 10 15 -4 0 -10 4 -15 9 -12 6 4 6 19 1 39
-16 58 -5 197 19 242 11 21 21 46 21 54 0 9 3 11 9 6 10 -11 51 -167 51 -193
0 -10 11 -41 25 -69 20 -39 30 -50 48 -49 16 1 23 -5 25 -22 2 -12 7 -20 12
-17 5 3 11 -3 15 -14 4 -13 12 -17 26 -14 37 10 41 36 13 115 -28 82 -45 160
-33 152 10 -6 49 13 49 24 0 4 -18 27 -40 52 -33 39 -37 46 -22 52 10 4 -4 7
-33 8 -27 0 -68 4 -90 9 -22 5 -72 12 -111 16 l-71 7 -41 -87z m107 -152 c-2
-57 -3 -61 -8 -28 -6 39 -3 95 5 95 2 0 3 -30 3 -67z m-92 -65 c-3 -8 -6 -5
-6 6 -1 11 2 17 5 13 3 -3 4 -12 1 -19z m58 12 c3 -5 1 -10 -4 -10 -6 0 -11 5
-11 10 0 6 2 10 4 10 3 0 8 -4 11 -10z m-158 -32 c-3 -8 -6 -5 -6 6 -1 11 2
17 5 13 3 -3 4 -12 1 -19z m372 -23 c0 -5 -4 -3 -9 5 -5 8 -9 22 -9 30 0 16
17 -16 18 -35z m-429 -95 c0 -5 -2 -10 -4 -10 -3 0 -8 5 -11 10 -3 6 -1 10 4
10 6 0 11 -4 11 -10z"/>
<path d="M5346 3708 c-15 -17 -16 -22 -5 -29 22 -14 29 -11 29 11 0 11 5 20
11 20 5 0 7 5 4 10 -9 14 -17 11 -39 -12z"/>
<path d="M2071 3654 c-12 -14 -12 -17 0 -25 12 -8 11 -12 -5 -24 -17 -13 -18
-15 -3 -15 9 0 17 3 18 8 3 16 7 72 5 72 0 -1 -7 -8 -15 -16z"/>
<path d="M2190 3634 c0 -14 4 -23 10 -19 6 3 10 15 10 26 0 10 -4 19 -10 19
-5 0 -10 -12 -10 -26z"/>
<path d="M2100 3644 c0 -10 31 -36 37 -31 3 3 -2 13 -10 22 -16 15 -27 19 -27
9z"/>
<path d="M5970 3637 l-25 -10 25 -6 c24 -7 35 0 28 18 -2 5 -14 4 -28 -2z"/>
<path d="M2035 3620 c-3 -5 -1 -10 4 -10 6 0 11 5 11 10 0 6 -2 10 -4 10 -3 0
-8 -4 -11 -10z"/>
<path d="M5847 3607 c-15 -23 -15 -24 11 -19 33 6 54 21 46 33 -10 17 -42 9
-57 -14z"/>
<path d="M2231 3581 c-8 -5 -9 -11 -3 -15 5 -3 12 1 16 9 6 17 6 18 -13 6z"/>
<path d="M2280 3580 c0 -5 5 -10 10 -10 6 0 10 5 10 10 0 6 -4 10 -10 10 -5 0
-10 -4 -10 -10z"/>
<path d="M2245 3550 c-3 -6 1 -7 9 -4 18 7 21 14 7 14 -6 0 -13 -4 -16 -10z"/>
<path d="M2160 3531 c0 -5 9 -11 21 -14 16 -4 18 -3 8 9 -13 16 -29 19 -29 5z"/>
<path d="M5610 3490 c-28 -8 -22 -12 42 -29 39 -10 57 -1 35 17 -19 15 -50 20
-77 12z"/>
<path d="M5715 3481 c-3 -5 -1 -12 4 -16 13 -8 61 5 61 16 0 12 -57 12 -65 0z"/>
<path d="M4021 3424 c0 -11 3 -14 6 -6 3 7 2 16 -1 19 -3 4 -6 -2 -5 -13z"/>
<path d="M3853 3383 c-10 -34 -10 -36 3 -19 12 17 20 56 11 56 -1 0 -7 -17
-14 -37z"/>
<path d="M1973 3368 c-28 -30 -30 -35 -18 -52 13 -17 14 -17 12 10 -1 19 3 29
15 32 11 2 16 -3 14 -15 -2 -10 -1 -12 1 -5 3 6 10 12 16 12 7 0 6 4 -3 10
-13 8 -12 11 5 24 16 12 17 15 4 16 -8 0 -29 -15 -46 -32z"/>
<path d="M2040 3396 c0 -2 9 -6 20 -9 11 -3 20 -1 20 4 0 5 -9 9 -20 9 -11 0
-20 -2 -20 -4z"/>
<path d="M4030 3329 c0 -6 7 -9 15 -6 8 4 17 2 20 -3 4 -6 12 -10 18 -10 16 1
-23 30 -40 30 -7 0 -13 -5 -13 -11z"/>
<path d="M5413 3314 c-4 -11 -16 -14 -48 -10 -39 4 -43 2 -57 -29 -14 -32 -14
-33 14 -50 28 -16 30 -16 43 2 8 10 15 23 15 29 0 14 34 26 79 28 36 1 57 26
22 26 -11 0 -23 5 -26 10 -9 15 -35 12 -42 -6z m-16 -30 c-3 -3 -12 -4 -19 -1
-8 3 -5 6 6 6 11 1 17 -2 13 -5z"/>
<path d="M5268 3292 c-4 -12 -2 -24 2 -27 13 -8 18 8 10 29 -6 19 -7 19 -12
-2z"/>
<path d="M4220 3260 c-23 -23 -26 -40 -7 -40 18 0 33 12 46 38 10 18 9 22 -4
22 -8 0 -24 -9 -35 -20z"/>
<path d="M2234 3248 c-3 -4 2 -5 10 -2 9 3 16 1 16 -5 0 -6 9 -11 20 -11 11 0
20 5 20 11 0 6 9 8 20 4 11 -3 20 -2 20 3 0 11 -100 11 -106 0z"/>
<path d="M4170 3205 c-8 -9 -8 -15 -2 -15 12 0 26 19 19 26 -2 2 -10 -2 -17
-11z"/>
<path d="M3890 2964 c0 -8 5 -12 10 -9 6 3 10 10 10 16 0 5 -4 9 -10 9 -5 0
-10 -7 -10 -16z"/>
<path d="M4970 2969 c0 -5 5 -7 10 -4 6 3 10 8 10 11 0 2 -4 4 -10 4 -5 0 -10
-5 -10 -11z"/>
<path d="M3313 2954 c-20 -10 -33 -24 -33 -35 0 -23 18 -25 26 -4 4 8 15 15
25 15 10 0 19 2 19 4 0 2 3 11 6 20 8 20 -2 20 -43 0z"/>
<path d="M3411 2961 c-10 -6 -10 -10 -1 -16 13 -8 24 -1 19 14 -3 6 -10 7 -18
2z"/>
<path d="M3455 2918 c-50 -13 -51 -14 -35 -33 9 -11 9 -22 1 -46 -9 -27 -8
-35 6 -51 17 -19 18 -19 29 14 l12 33 2 -35 c1 -33 2 -34 11 -11 5 14 9 41 9
60 -1 20 2 46 5 59 4 12 6 22 4 21 -2 -1 -22 -6 -44 -11z"/>
<path d="M320 2850 c0 -6 -7 -10 -15 -10 -18 0 -20 -37 -3 -42 12 -4 48 26 48
41 0 5 -7 11 -15 15 -8 3 -15 1 -15 -4z"/>
<path d="M3261 2838 c0 -10 -8 -18 -16 -18 -8 0 -15 -9 -15 -19 0 -11 -8 -21
-17 -24 -17 -4 -17 -4 0 -12 28 -12 60 24 54 61 -2 16 -5 21 -6 12z"/>
<path d="M4920 2839 c0 -5 5 -7 10 -4 6 3 10 8 10 11 0 2 -4 4 -10 4 -5 0 -10
-5 -10 -11z"/>
<path d="M4875 2820 c-3 -5 1 -10 9 -10 9 0 16 5 16 10 0 6 -4 10 -9 10 -6 0
-13 -4 -16 -10z"/>
<path d="M2241 2806 c2 -2 22 -6 44 -9 28 -5 34 -4 20 3 -19 8 -73 14 -64 6z"/>
<path d="M1441 2734 c0 -11 3 -14 6 -6 3 7 2 16 -1 19 -3 4 -6 -2 -5 -13z"/>
<path d="M1600 2739 c0 -5 5 -7 10 -4 6 3 10 8 10 11 0 2 -4 4 -10 4 -5 0 -10
-5 -10 -11z"/>
<path d="M3195 2719 c4 -5 1 -16 -5 -24 -7 -8 -8 -15 -4 -15 5 0 15 9 21 19
10 16 9 20 -3 25 -9 3 -12 2 -9 -5z"/>
<path d="M2800 2640 c0 -9 22 -15 44 -11 5 1 6 -5 3 -14 -5 -10 0 -15 13 -15
14 0 20 -7 21 -22 0 -13 3 -17 6 -10 2 6 10 12 18 12 7 0 18 7 25 16 11 12 11
17 -1 28 -17 17 -129 30 -129 16z"/>
<path d="M4070 2640 c0 -6 5 -8 11 -4 13 8 3 -34 -14 -54 -16 -20 -17 -72 -1
-72 8 0 14 4 14 8 0 4 12 15 28 25 56 35 74 56 68 79 -4 20 -13 23 -56 26 -31
2 -50 -1 -50 -8z"/>
<path d="M1603 2627 c4 -11 1 -17 -8 -17 -22 0 -18 -38 5 -45 11 -3 20 -11 20
-16 0 -15 27 -10 34 7 3 9 12 14 19 11 9 -3 12 4 11 25 -3 37 -3 38 -49 45
-33 5 -37 4 -32 -10z"/>
<path d="M3426 2614 c-11 -8 -16 -14 -12 -14 5 0 3 -6 -3 -13 -6 -8 -8 -17 -4
-20 11 -12 23 -7 23 9 0 10 6 14 15 10 10 -4 14 0 12 14 -4 28 -10 30 -31 14z"/>
<path d="M4190 2620 c0 -5 7 -10 15 -10 8 0 15 5 15 10 0 6 -7 10 -15 10 -8 0
-15 -4 -15 -10z"/>
<path d="M3368 2613 c7 -3 16 -2 19 1 4 3 -2 6 -13 5 -11 0 -14 -3 -6 -6z"/>
<path d="M2483 2570 c0 -21 -8 -51 -17 -64 -20 -31 -20 -46 -2 -46 22 0 66
-40 66 -59 0 -16 5 -17 46 -10 26 5 53 14 60 19 21 18 112 0 142 -27 19 -18
28 -21 32 -11 3 7 12 13 20 13 27 0 23 34 -4 45 -17 6 -26 17 -27 32 0 13 -3
17 -6 11 -7 -20 -31 -15 -38 7 -4 13 -15 20 -33 20 -20 0 -23 -3 -14 -12 17
-17 15 -33 -3 -18 -12 10 -20 9 -40 -4 -33 -21 -120 -33 -129 -17 -4 6 0 14 8
17 19 7 21 30 3 37 -7 3 -14 24 -15 48 -4 51 -8 59 -31 59 -15 0 -18 -8 -18
-40z"/>
<path d="M3060 2595 c-10 -12 -9 -16 4 -21 9 -3 23 -3 32 0 13 5 14 9 4 21 -7
8 -16 15 -20 15 -4 0 -13 -7 -20 -15z"/>
<path d="M460 2560 c0 -5 5 -10 10 -10 6 0 10 5 10 10 0 6 -4 10 -10 10 -5 0
-10 -4 -10 -10z"/>
<path d="M1826 2511 c-4 -7 -5 -15 -2 -18 9 -9 19 4 14 18 -4 11 -6 11 -12 0z"/>
<path d="M1500 2491 c0 -13 7 -18 25 -18 14 0 28 3 31 8 3 5 -4 9 -15 9 -12 0
-21 5 -21 10 0 6 -4 10 -10 10 -5 0 -10 -8 -10 -19z"/>
<path d="M1625 2480 c-3 -5 1 -10 10 -10 9 0 13 5 10 10 -3 6 -8 10 -10 10 -2
0 -7 -4 -10 -10z"/>
<path d="M3836 2439 c17 -40 16 -117 -2 -164 -6 -18 -4 -17 19 4 21 19 27 34
27 68 0 24 7 54 16 68 22 34 1 65 -43 65 l-33 0 16 -41z"/>
<path d="M4012 2464 c-11 -12 -11 -18 -2 -29 16 -19 30 -10 30 21 0 27 -9 30
-28 8z"/>
<path d="M2327 2463 c-4 -3 -7 -13 -7 -22 1 -13 3 -13 11 2 11 19 8 33 -4 20z"/>
<path d="M3377 2423 c4 -11 3 -14 -5 -9 -11 7 -16 -5 -13 -30 1 -7 -5 -14 -14
-18 -8 -3 -15 -15 -15 -26 0 -13 -7 -20 -20 -20 -11 0 -20 -4 -20 -9 0 -19
-55 19 -60 41 -4 15 -15 24 -30 26 -14 2 -29 8 -34 13 -17 15 -23 10 -30 -22
-3 -19 0 -42 9 -60 17 -33 27 -36 45 -14 27 32 68 8 53 -32 -4 -10 -2 -14 5
-9 6 3 13 2 17 -3 3 -6 12 -8 20 -4 10 3 15 -1 15 -11 0 -15 2 -15 24 -1 13 9
26 25 29 35 3 12 14 20 26 20 12 0 21 6 21 16 0 11 -6 14 -21 9 -15 -5 -19 -4
-15 4 4 6 14 11 23 11 10 0 13 6 9 17 -4 9 -2 20 5 23 15 10 1 70 -16 70 -9 0
-12 -6 -8 -17z"/>
<path d="M2360 2414 c0 -8 5 -12 10 -9 6 4 8 11 5 16 -9 14 -15 11 -15 -7z"/>
<path d="M1970 2260 c0 -5 7 -10 15 -10 8 0 15 5 15 10 0 6 -7 10 -15 10 -8 0
-15 -4 -15 -10z"/>
<path d="M3360 2201 c0 -9 13 -25 28 -35 15 -11 24 -16 20 -12 -3 4 -3 20 1
34 7 25 6 27 -20 28 -21 1 -29 -4 -29 -15z"/>
<path d="M2340 2186 c0 -1 11 -24 25 -49 13 -26 22 -54 19 -62 -4 -8 -1 -15 6
-15 6 0 9 -4 5 -10 -12 -20 19 -49 50 -48 17 1 53 -7 79 -17 60 -23 66 -17 57
57 -1 3 -18 5 -38 3 -29 -3 -43 2 -62 21 -13 13 -27 24 -32 24 -4 0 -13 18
-20 39 -7 25 -20 43 -36 50 -23 11 -53 15 -53 7z"/>
<path d="M3302 2179 c2 -6 8 -10 13 -10 5 0 11 4 13 10 2 6 -4 11 -13 11 -9 0
-15 -5 -13 -11z"/>
<path d="M3600 2160 c0 -5 5 -10 11 -10 5 0 7 5 4 10 -3 6 -8 10 -11 10 -2 0
-4 -4 -4 -10z"/>
<path d="M2520 2140 c0 -5 5 -10 10 -10 6 0 10 5 10 10 0 6 -4 10 -10 10 -5 0
-10 -4 -10 -10z"/>
<path d="M3370 2130 c0 -5 5 -10 11 -10 5 0 7 5 4 10 -3 6 -8 10 -11 10 -2 0
-4 -4 -4 -10z"/>
<path d="M2337 2099 c-13 -8 -15 -14 -7 -30 16 -29 41 -25 36 7 -6 34 -8 34
-29 23z"/>
<path d="M2290 2060 c0 -12 7 -20 16 -20 9 0 18 -9 21 -20 6 -22 11 -24 33
-10 9 6 19 5 29 -3 11 -10 13 -9 9 3 -2 8 -18 16 -35 18 -21 2 -34 11 -41 28
-14 29 -32 32 -32 4z"/>
<path d="M2295 2021 c-3 -5 -1 -12 5 -16 5 -3 10 1 10 9 0 18 -6 21 -15 7z"/>
<path d="M1846 1941 c-8 -12 21 -34 34 -26 17 11 11 35 -9 35 -11 0 -22 -4
-25 -9z"/>
<path d="M1902 1849 c2 -13 -3 -24 -9 -25 -26 -3 -28 -5 -13 -14 20 -13 33
-12 53 3 15 11 14 14 -8 36 l-25 23 2 -23z"/>
<path d="M1505 1450 c-16 -7 -17 -9 -3 -9 9 -1 20 4 23 9 7 11 7 11 -20 0z"/>
<path d="M1838 1328 c6 -8 9 -18 5 -21 -3 -4 1 -7 11 -7 24 0 16 34 -9 39 -16
3 -17 1 -7 -11z"/>
</g>
</svg>
